<svg width="30" height="30" viewBox="0 0 30 30" fill="none" xmlns="http://www.w3.org/2000/svg">
<path d="M23.7498 13.7499H8.92485L13.4623 8.29986C13.6745 8.04459 13.7766 7.71548 13.7461 7.38495C13.7156 7.05442 13.5551 6.74953 13.2998 6.53736C13.0446 6.32518 12.7155 6.22311 12.3849 6.25358C12.0544 6.28406 11.7495 6.44459 11.5373 6.69986L5.28735 14.1999C5.2453 14.2595 5.2077 14.3222 5.17485 14.3874C5.17485 14.4499 5.17485 14.4874 5.08735 14.5499C5.03069 14.6932 5.00102 14.8457 4.99985 14.9999C5.00102 15.154 5.03069 15.3065 5.08735 15.4499C5.08735 15.5124 5.08735 15.5499 5.17485 15.6124C5.2077 15.6775 5.2453 15.7402 5.28735 15.7999L11.5373 23.2999C11.6549 23.441 11.8021 23.5544 11.9684 23.6322C12.1348 23.71 12.3162 23.7502 12.4998 23.7499C12.7919 23.7504 13.075 23.6487 13.2998 23.4624C13.4264 23.3574 13.531 23.2285 13.6077 23.0831C13.6844 22.9377 13.7317 22.7785 13.7468 22.6148C13.7619 22.4511 13.7445 22.286 13.6957 22.129C13.6469 21.972 13.5676 21.8262 13.4623 21.6999L8.92485 16.2499H23.7498C24.0814 16.2499 24.3993 16.1182 24.6337 15.8837C24.8682 15.6493 24.9998 15.3314 24.9998 14.9999C24.9998 14.6683 24.8682 14.3504 24.6337 14.116C24.3993 13.8816 24.0814 13.7499 23.7498 13.7499Z" fill="black"/>
</svg>
